<svg width="26" height="25" viewBox="0 0 26 25" fill="none" xmlns="http://www.w3.org/2000/svg">
<path d="M18.0469 15.8125H16.9359L16.5422 15.4328C17.9203 13.8297 18.75 11.7484 18.75 9.48438C18.75 4.43594 14.6578 0.34375 9.60938 0.34375C4.56094 0.34375 0.46875 4.43594 0.46875 9.48438C0.46875 14.5328 4.56094 18.625 9.60938 18.625C11.8734 18.625 13.9547 17.7953 15.5578 16.4172L15.9375 16.8109V17.9219L22.9688 24.9391L25.0641 22.8438L18.0469 15.8125ZM9.60938 15.8125C6.10781 15.8125 3.28125 12.9859 3.28125 9.48438C3.28125 5.98281 6.10781 3.15625 9.60938 3.15625C13.1109 3.15625 15.9375 5.98281 15.9375 9.48438C15.9375 12.9859 13.1109 15.8125 9.60938 15.8125Z" fill="#22FFCA"/>
</svg>
